<svg xmlns="http://www.w3.org/2000/svg" xmlns:xlink="http://www.w3.org/1999/xlink" width="500" zoomAndPan="magnify" viewBox="0 0 375 374.999991" height="500" preserveAspectRatio="xMidYMid meet" version="1.0"><defs><g/><clipPath id="b9456d7faa"><path d="M 163 18.453125 L 215 18.453125 L 215 131 L 163 131 Z M 163 18.453125 " clip-rule="nonzero"/></clipPath><clipPath id="f1a464babc"><path d="M 52.128906 199 L 325.878906 199 L 325.878906 258.453125 L 52.128906 258.453125 Z M 52.128906 199 " clip-rule="nonzero"/></clipPath></defs><g clip-path="url(#b9456d7faa)"><path fill="#058447" d="M 189.132812 130.410156 L 185.589844 126.414062 C 159.617188 97.183594 161.070312 70.164062 166.867188 52.644531 C 173.09375 33.832031 185.355469 22.042969 185.863281 21.550781 L 189.132812 18.453125 L 192.398438 21.550781 C 192.917969 22.042969 205.179688 33.820312 211.398438 52.644531 C 217.191406 70.15625 218.648438 97.171875 192.671875 126.414062 Z M 189.132812 31.980469 C 180.03125 42.707031 157.421875 76.234375 189.132812 115.914062 C 220.84375 76.246094 198.242188 42.714844 189.132812 31.980469 Z M 189.132812 31.980469 " fill-opacity="1" fill-rule="nonzero"/></g><path fill="#058447" d="M 189.132812 208.746094 C 170.605469 208.746094 152.078125 203.351562 136.269531 192.570312 C 88.144531 159.738281 94.128906 101.738281 94.402344 99.289062 L 94.847656 95.363281 L 98.78125 95.085938 C 99.453125 95.039062 115.410156 94.015625 135.058594 100.636719 C 151.625 106.226562 173.761719 118.425781 189.121094 145.066406 C 204.480469 118.425781 226.617188 106.226562 243.1875 100.636719 C 262.832031 94.015625 278.792969 95.039062 279.460938 95.085938 L 283.398438 95.363281 L 283.839844 99.289062 C 284.113281 101.738281 290.097656 159.746094 241.976562 192.570312 C 226.183594 203.351562 207.65625 208.746094 189.132812 208.746094 Z M 103.613281 104.523438 C 103.289062 117.855469 105.335938 159.972656 141.621094 184.738281 C 170.035156 204.128906 208.230469 204.128906 236.644531 184.738281 C 272.929688 159.984375 274.976562 117.863281 274.648438 104.523438 C 268.992188 104.671875 258.140625 105.554688 245.871094 109.746094 C 222.128906 117.84375 204.480469 133.851562 193.410156 157.328125 L 189.121094 166.429688 L 184.832031 157.328125 C 173.761719 133.851562 156.113281 117.84375 132.371094 109.746094 C 120.121094 105.554688 109.269531 104.660156 103.613281 104.523438 Z M 103.613281 104.523438 " fill-opacity="1" fill-rule="nonzero"/><g clip-path="url(#f1a464babc)"><path fill="#058447" d="M 193.875 258.558594 L 184.390625 258.519531 C 184.378906 257.761719 183.800781 238.820312 158.671875 222.34375 C 158.335938 222.125 158 221.910156 157.667969 221.691406 C 136.472656 248.03125 110.714844 250.738281 92.503906 248.207031 C 72.296875 245.394531 57.3125 235.792969 56.683594 235.386719 L 52.175781 232.464844 L 55.640625 228.351562 C 56.113281 227.792969 67.394531 214.539062 86.347656 206.128906 C 103.996094 198.285156 131.78125 193.355469 163.875 214.410156 C 177.648438 223.445312 185.109375 233.390625 189.132812 241.546875 C 193.164062 233.390625 200.613281 223.445312 214.386719 214.410156 C 246.480469 193.367188 274.257812 198.296875 291.917969 206.128906 C 310.867188 214.539062 322.152344 227.792969 322.625 228.351562 L 326.085938 232.464844 L 321.582031 235.386719 C 320.953125 235.792969 305.976562 245.394531 285.757812 248.207031 C 267.546875 250.746094 241.789062 248.039062 220.597656 221.691406 C 220.261719 221.910156 219.925781 222.125 219.59375 222.34375 C 194.464844 238.832031 193.882812 257.761719 193.875 258.558594 Z M 67.003906 230.28125 C 72.671875 233.125 82.527344 237.296875 94.117188 238.859375 C 116.148438 241.832031 134.703125 234.453125 149.324219 216.921875 C 129.625 206.933594 109.890625 206.167969 90.507812 214.667969 C 79.714844 219.398438 71.566406 226.023438 67.003906 230.28125 Z M 228.9375 216.910156 C 243.570312 234.453125 262.125 241.832031 284.144531 238.851562 C 295.726562 237.285156 305.582031 233.125 311.261719 230.273438 C 306.703125 226.011719 298.546875 219.390625 287.753906 214.648438 C 268.375 206.167969 248.625 206.933594 228.9375 216.910156 Z M 228.9375 216.910156 " fill-opacity="1" fill-rule="nonzero"/></g><g fill="#058447" fill-opacity="1"><g transform="translate(107.643873, 305.329432)"><g><path d="M 3.574219 0 L 12.839844 0 C 21.0625 0 25.679688 -4.617188 25.679688 -11.375 C 25.679688 -18.136719 21.0625 -22.753906 12.839844 -22.753906 L 3.574219 -22.753906 L 3.574219 -22.589844 C 3.574219 -22.589844 3.574219 -19.601562 3.574219 -13.652344 Z M 6.664062 -2.925781 L 6.664062 -19.828125 L 12.839844 -19.828125 C 19.113281 -19.828125 22.429688 -16.511719 22.429688 -11.375 C 22.429688 -6.242188 19.113281 -2.925781 12.839844 -2.925781 Z M 6.664062 -2.925781 "/></g></g></g><g fill="#058447" fill-opacity="1"><g transform="translate(135.915424, 305.329432)"><g><path d="M 19.015625 -8.613281 C 19.015625 -13.066406 15.539062 -16.578125 10.402344 -16.578125 C 5.101562 -16.578125 1.625 -13.097656 1.625 -8.125 C 1.625 -3.25 5.199219 0.324219 11.375 0.324219 C 14.757812 0.324219 17.324219 -0.976562 18.851562 -2.371094 L 18.851562 -6.339844 L 18.691406 -6.339844 C 17.359375 -3.609375 14.59375 -2.273438 11.375 -2.273438 C 7.542969 -2.273438 5.265625 -4.128906 4.8125 -6.988281 L 18.851562 -6.988281 C 18.851562 -6.988281 19.015625 -7.542969 19.015625 -8.613281 Z M 5.234375 -9.589844 L 4.84375 -9.589844 C 5.363281 -12.382812 7.378906 -13.976562 10.402344 -13.976562 C 13.195312 -13.976562 15.34375 -12.449219 15.796875 -9.589844 Z M 5.234375 -9.589844 "/></g></g></g><g fill="#058447" fill-opacity="1"><g transform="translate(156.712885, 305.329432)"><g><path d="M 8.191406 0.324219 C 10.273438 0.324219 11.507812 -0.519531 12.1875 -1.300781 L 12.1875 -5.199219 L 12.027344 -5.199219 C 11.375 -3.640625 10.335938 -2.4375 8.453125 -2.4375 C 6.664062 -2.4375 5.6875 -3.414062 5.6875 -6.339844 L 5.6875 -22.753906 L 2.761719 -22.753906 L 2.761719 -22.589844 C 2.761719 -21.257812 2.761719 -19.277344 2.761719 -15.277344 L 2.761719 -6.175781 C 2.761719 -1.558594 4.648438 0.324219 8.191406 0.324219 Z M 8.191406 0.324219 "/></g></g></g><g fill="#058447" fill-opacity="1"><g transform="translate(169.386335, 305.329432)"><g/></g></g><g fill="#058447" fill-opacity="1"><g transform="translate(179.135144, 305.329432)"><g><path d="M 12.09375 0.648438 L 12.285156 0.648438 L 17.097656 -8.417969 C 19.40625 -12.742188 22.429688 -18.496094 24.605469 -22.589844 L 24.703125 -22.753906 L 21.257812 -22.753906 L 21.160156 -22.589844 C 20.738281 -21.777344 20.21875 -20.769531 19.601562 -19.601562 L 14.953125 -10.757812 L 12.285156 -5.6875 L 12.09375 -5.6875 C 9.363281 -10.890625 7.671875 -14.105469 4.777344 -19.601562 L 3.21875 -22.589844 L 3.121094 -22.753906 L -0.324219 -22.753906 L -0.226562 -22.589844 Z M 12.09375 0.648438 "/></g></g></g><g fill="#058447" fill-opacity="1"><g transform="translate(203.507167, 305.329432)"><g><path d="M 2.4375 -3.738281 C 2.4375 -1.460938 4.226562 0.324219 7.378906 0.324219 C 12.675781 0.324219 15.113281 -3.933594 15.113281 -3.933594 L 15.277344 -3.933594 C 15.277344 -3.933594 15.277344 -3.609375 15.277344 -3.609375 L 15.277344 0 L 18.203125 0 L 18.203125 -10.238281 C 18.203125 -14.300781 15.925781 -16.578125 11.570312 -16.578125 C 7.28125 -16.578125 3.902344 -14.628906 2.4375 -12.027344 L 2.4375 -7.347656 L 2.601562 -7.347656 C 4.226562 -11.570312 8.257812 -13.976562 11.3125 -13.976562 C 13.652344 -13.976562 14.953125 -13.066406 14.953125 -11.832031 C 14.953125 -10.238281 13.195312 -9.816406 8.9375 -8.9375 C 5.527344 -8.222656 2.4375 -7.476562 2.4375 -3.738281 Z M 5.527344 -4.03125 C 5.527344 -5.296875 6.761719 -5.980469 9.265625 -6.5 C 13.488281 -7.378906 15.277344 -8.191406 15.277344 -8.191406 L 15.277344 -8.027344 C 14.496094 -6.144531 11.507812 -2.273438 7.800781 -2.273438 C 6.304688 -2.273438 5.527344 -3.023438 5.527344 -4.03125 Z M 5.527344 -4.03125 "/></g></g></g><g fill="#058447" fill-opacity="1"><g transform="translate(224.467111, 305.329432)"><g><path d="M 8.191406 0.324219 C 10.273438 0.324219 11.507812 -0.519531 12.1875 -1.300781 L 12.1875 -5.199219 L 12.027344 -5.199219 C 11.375 -3.640625 10.335938 -2.4375 8.453125 -2.4375 C 6.664062 -2.4375 5.6875 -3.414062 5.6875 -6.339844 L 5.6875 -22.753906 L 2.761719 -22.753906 L 2.761719 -22.589844 C 2.761719 -21.257812 2.761719 -19.277344 2.761719 -15.277344 L 2.761719 -6.175781 C 2.761719 -1.558594 4.648438 0.324219 8.191406 0.324219 Z M 8.191406 0.324219 "/></g></g></g><g fill="#058447" fill-opacity="1"><g transform="translate(237.140561, 305.329432)"><g><path d="M 8.191406 0.324219 C 10.273438 0.324219 11.507812 -0.519531 12.1875 -1.300781 L 12.1875 -5.199219 L 12.027344 -5.199219 C 11.375 -3.640625 10.335938 -2.4375 8.453125 -2.4375 C 6.664062 -2.4375 5.6875 -3.414062 5.6875 -6.339844 L 5.6875 -22.753906 L 2.761719 -22.753906 L 2.761719 -22.589844 C 2.761719 -21.257812 2.761719 -19.277344 2.761719 -15.277344 L 2.761719 -6.175781 C 2.761719 -1.558594 4.648438 0.324219 8.191406 0.324219 Z M 8.191406 0.324219 "/></g></g></g><g fill="#058447" fill-opacity="1"><g transform="translate(249.81401, 305.329432)"><g><path d="M 19.015625 -8.613281 C 19.015625 -13.066406 15.539062 -16.578125 10.402344 -16.578125 C 5.101562 -16.578125 1.625 -13.097656 1.625 -8.125 C 1.625 -3.25 5.199219 0.324219 11.375 0.324219 C 14.757812 0.324219 17.324219 -0.976562 18.851562 -2.371094 L 18.851562 -6.339844 L 18.691406 -6.339844 C 17.359375 -3.609375 14.59375 -2.273438 11.375 -2.273438 C 7.542969 -2.273438 5.265625 -4.128906 4.8125 -6.988281 L 18.851562 -6.988281 C 18.851562 -6.988281 19.015625 -7.542969 19.015625 -8.613281 Z M 5.234375 -9.589844 L 4.84375 -9.589844 C 5.363281 -12.382812 7.378906 -13.976562 10.402344 -13.976562 C 13.195312 -13.976562 15.34375 -12.449219 15.796875 -9.589844 Z M 5.234375 -9.589844 "/></g></g></g><g fill="#058447" fill-opacity="1"><g transform="translate(150.11921, 344.799997)"><g/></g></g><g fill="#058447" fill-opacity="1"><g transform="translate(156.248116, 344.799997)"><g><path d="M 7.585938 0.40625 L 7.707031 0.40625 L 10.726562 -5.28125 C 12.175781 -7.992188 14.070312 -11.601562 15.4375 -14.171875 L 15.5 -14.273438 L 13.335938 -14.273438 L 13.277344 -14.171875 C 13.011719 -13.664062 12.683594 -13.03125 12.296875 -12.296875 L 9.378906 -6.75 L 7.707031 -3.570312 L 7.585938 -3.570312 C 5.871094 -6.832031 4.8125 -8.851562 2.996094 -12.296875 L 2.019531 -14.171875 L 1.957031 -14.273438 L -0.203125 -14.273438 L -0.144531 -14.171875 Z M 7.585938 0.40625 "/></g></g></g><g fill="#058447" fill-opacity="1"><g transform="translate(171.541129, 344.799997)"><g><path d="M 1.835938 0 L 3.671875 0 L 3.671875 -10.195312 C 3.261719 -10.195312 2.957031 -10.503906 2.957031 -10.910156 C 2.957031 -11.847656 4.078125 -11.949219 4.078125 -13.050781 C 4.078125 -13.703125 3.507812 -14.273438 2.753906 -14.273438 C 2 -14.273438 1.425781 -13.703125 1.425781 -13.050781 C 1.425781 -11.949219 2.550781 -11.828125 2.550781 -10.910156 C 2.550781 -10.503906 2.242188 -10.195312 1.835938 -10.195312 L 1.835938 -10.09375 C 1.835938 -9.523438 1.835938 -8.175781 1.835938 -6.117188 Z M 1.835938 0 "/></g></g></g><g fill="#058447" fill-opacity="1"><g transform="translate(177.046618, 344.799997)"><g><path d="M 5.609375 0.304688 L 5.8125 0.304688 L 8.667969 -4.851562 L 11.5625 -10.09375 L 11.625 -10.195312 L 9.605469 -10.195312 L 9.542969 -10.09375 C 9.09375 -9.277344 8.769531 -8.667969 8.320312 -7.851562 L 6.933594 -5.324219 L 5.769531 -3.203125 L 5.648438 -3.203125 C 4.609375 -5.097656 3.589844 -6.953125 2.507812 -8.933594 L 1.875 -10.09375 L 1.816406 -10.195312 L -0.203125 -10.195312 L -0.144531 -10.09375 C 0.734375 -8.503906 1.691406 -6.769531 2.652344 -5.035156 Z M 5.609375 0.304688 "/></g></g></g><g fill="#058447" fill-opacity="1"><g transform="translate(188.465406, 344.799997)"><g><path d="M 11.929688 -5.402344 C 11.929688 -8.199219 9.746094 -10.398438 6.527344 -10.398438 C 3.203125 -10.398438 1.019531 -8.21875 1.019531 -5.097656 C 1.019531 -2.039062 3.261719 0.203125 7.136719 0.203125 C 9.257812 0.203125 10.871094 -0.613281 11.828125 -1.488281 L 11.828125 -3.976562 L 11.726562 -3.976562 C 10.890625 -2.261719 9.15625 -1.425781 7.136719 -1.425781 C 4.730469 -1.425781 3.304688 -2.589844 3.019531 -4.382812 L 11.828125 -4.382812 C 11.828125 -4.382812 11.929688 -4.730469 11.929688 -5.402344 Z M 3.28125 -6.015625 L 3.039062 -6.015625 C 3.363281 -7.769531 4.628906 -8.769531 6.527344 -8.769531 C 8.28125 -8.769531 9.625 -7.808594 9.910156 -6.015625 Z M 3.28125 -6.015625 "/></g></g></g><g fill="#058447" fill-opacity="1"><g transform="translate(201.515447, 344.799997)"><g><path d="M 7.605469 -8.566406 C 8.542969 -8.566406 9.074219 -8.074219 9.074219 -8.074219 L 9.175781 -8.074219 L 9.175781 -10.195312 C 9.175781 -10.195312 8.605469 -10.398438 7.769531 -10.398438 C 5.769531 -10.398438 4.40625 -9.035156 3.773438 -8.15625 L 3.710938 -8.15625 C 3.710938 -8.15625 3.671875 -8.15625 3.671875 -8.15625 L 3.671875 -10.195312 L 1.835938 -10.195312 L 1.835938 -10.09375 C 1.835938 -10.09375 1.835938 -8.074219 1.835938 -5.078125 L 1.835938 -0.203125 L 3.671875 -0.203125 L 3.671875 -5.710938 C 4.75 -7.238281 6.078125 -8.566406 7.605469 -8.566406 Z M 7.605469 -8.566406 "/></g></g></g><g fill="#058447" fill-opacity="1"><g transform="translate(211.201027, 344.799997)"><g><path d="M 1.019531 -5.097656 C 1.019531 -2.039062 3.261719 0.203125 6.832031 0.203125 C 10.398438 0.203125 12.644531 -2.039062 12.644531 -5.097656 C 12.644531 -8.15625 10.398438 -10.398438 6.832031 -10.398438 C 3.261719 -10.398438 1.019531 -8.15625 1.019531 -5.097656 Z M 2.957031 -5.097656 C 2.957031 -7.28125 4.445312 -8.769531 6.832031 -8.769531 C 9.21875 -8.769531 10.707031 -7.28125 10.707031 -5.097656 C 10.707031 -2.917969 9.21875 -1.425781 6.832031 -1.425781 C 4.445312 -1.425781 2.957031 -2.917969 2.957031 -5.097656 Z M 2.957031 -5.097656 "/></g></g></g></svg>